<!DOCTYPE svg PUBLIC "-//W3C//DTD SVG 20010904//EN" "http://www.w3.org/TR/2001/REC-SVG-20010904/DTD/svg10.dtd">
<svg version="1.0" xmlns="http://www.w3.org/2000/svg" width="447px" height="127px" viewBox="0 0 4470 1270" preserveAspectRatio="xMidYMid meet">
<g id="layer101" fill="#a10000" stroke="none">
 <path d="M370 835 c-140 -140 -252 -256 -250 -258 3 -2 79 -17 170 -34 l165 -30 204 24 c112 13 205 22 207 20 2 -2 -12 -39 -32 -83 -29 -66 -34 -86 -28 -124 8 -58 25 -90 68 -128 107 -94 267 -48 317 90 13 37 6 99 -16 152 -7 16 -5 18 14 13 19 -5 62 35 276 251 139 141 252 258 251 259 -1 1 -69 23 -151 48 l-148 47 -227 -27 -226 -27 -166 31 c-90 17 -167 31 -169 31 -2 0 -119 -115 -259 -255z"/>
 <path d="M3966 943 c62 -137 61 -120 14 -214 -24 -46 -58 -117 -76 -156 l-33 -73 40 0 40 0 55 117 55 117 53 -114 54 -115 41 -3 40 -3 -14 33 c-7 18 -58 130 -113 248 l-99 215 -42 3 -41 3 26 -58z"/>
 <path d="M2475 851 c-22 -10 -52 -31 -67 -47 -120 -129 3 -350 170 -304 68 18 122 99 122 183 l0 27 -130 0 c-147 0 -156 6 -95 59 41 36 96 41 147 15 29 -15 32 -15 52 6 l21 21 -25 19 c-26 20 -93 40 -132 40 -13 0 -41 -9 -63 -19z m145 -221 c0 -12 -11 -32 -25 -45 -35 -36 -88 -34 -126 4 -51 51 -42 61 61 61 84 0 90 -1 90 -20z"/>
 <path d="M2865 852 c-127 -59 -151 -227 -45 -316 60 -50 152 -55 200 -11 17 15 19 15 25 -4 4 -15 15 -21 36 -21 l29 0 0 180 0 180 -29 0 c-21 0 -32 -6 -36 -20 -6 -20 -6 -20 -34 1 -40 29 -97 34 -146 11z m128 -73 c37 -29 54 -88 38 -138 -25 -84 -107 -107 -167 -47 -29 29 -34 41 -34 83 0 48 16 84 50 110 24 20 84 15 113 -8z"/>
 <path d="M3585 850 c-35 -18 -41 -19 -51 -5 -6 8 -23 15 -38 15 l-26 0 0 -275 0 -275 35 0 35 0 0 110 c0 61 2 110 5 110 3 0 17 -8 32 -17 39 -26 120 -23 165 5 58 36 83 85 83 163 0 55 -4 72 -28 108 -31 46 -91 80 -142 81 -17 0 -49 -9 -70 -20z m117 -61 c26 -14 61 -93 53 -122 -16 -56 -30 -79 -56 -92 -65 -34 -130 -5 -149 66 -14 51 2 111 37 138 28 23 82 27 115 10z"/>
 <path d="M1837 854 c-4 -4 -7 -124 -7 -266 l0 -258 44 0 44 0 143 199 144 199 3 -199 2 -199 40 0 40 0 0 265 0 265 -39 0 -39 0 -146 -201 -146 -200 -2 198 -3 198 -35 3 c-20 2 -39 0 -43 -4z"/>
 <path d="M3192 683 l3 -178 24 -3 c14 -2 30 3 36 12 10 14 16 13 53 -6 31 -15 52 -18 77 -14 32 6 35 9 29 34 -9 36 -10 37 -48 34 -24 -2 -42 4 -64 23 l-32 27 0 124 0 124 -40 0 -40 0 2 -177z"/>
 </g>
<g id="layer102" fill="#d60000" stroke="none">
 <path d="M370 835 c-140 -140 -252 -256 -250 -258 3 -2 79 -17 170 -34 l165 -30 204 24 c139 16 208 20 215 13 7 -7 6 -10 -3 -10 -7 0 -9 -4 -6 -10 3 -5 1 -10 -5 -10 -6 0 -8 -4 -5 -10 3 -5 1 -10 -5 -10 -6 0 -8 -4 -5 -10 3 -6 1 -10 -4 -10 -6 0 -10 -3 -9 -7 0 -5 -7 -25 -16 -47 -12 -27 -15 -50 -11 -80 9 -54 17 -66 67 -115 68 -67 160 -78 234 -28 32 22 82 77 69 77 -3 0 2 11 11 25 13 19 15 38 11 77 -4 28 -10 54 -14 57 -5 3 -9 14 -11 25 -3 15 1 18 18 13 17 -4 66 40 275 251 139 141 252 258 251 259 -1 1 -69 23 -151 48 l-148 47 -227 -27 -226 -27 -166 31 c-90 17 -167 31 -169 31 -2 0 -119 -115 -259 -255z m659 -105 c0 -3 -6 6 -13 19 -14 25 -14 25 -40 -27 -38 -75 -40 -64 -3 17 l31 69 13 -37 c7 -20 13 -38 12 -41z m31 -50 c11 -22 18 -40 15 -40 -2 0 -14 18 -25 40 -11 22 -18 40 -15 40 2 0 14 -18 25 -40z m-135 -50 c-9 -16 -18 -30 -21 -30 -2 0 2 14 11 30 9 17 18 30 21 30 2 0 -2 -13 -11 -30z m180 -30 c9 -16 13 -30 11 -30 -3 0 -12 14 -21 30 -9 17 -13 30 -11 30 3 0 12 -13 21 -30z m-55 -190 c26 -26 25 -51 -1 -84 -37 -47 -109 -23 -109 36 0 62 67 91 110 48z"/>
 <path d="M3966 943 c62 -137 61 -120 14 -214 -24 -46 -58 -117 -76 -156 l-33 -73 40 0 40 0 55 117 55 117 53 -114 54 -115 41 -3 40 -3 -14 33 c-7 18 -58 130 -113 248 l-99 215 -42 3 -41 3 26 -58z"/>
 <path d="M2475 851 c-22 -10 -52 -31 -67 -47 -120 -129 3 -350 170 -304 68 18 122 99 122 183 l0 27 -130 0 c-147 0 -156 6 -95 59 41 36 96 41 147 15 29 -15 32 -15 52 6 l21 21 -25 19 c-26 20 -93 40 -132 40 -13 0 -41 -9 -63 -19z m145 -221 c0 -12 -11 -32 -25 -45 -35 -36 -88 -34 -126 4 -51 51 -42 61 61 61 84 0 90 -1 90 -20z"/>
 <path d="M2865 852 c-127 -59 -151 -227 -45 -316 60 -50 152 -55 200 -11 17 15 19 15 25 -4 4 -15 15 -21 36 -21 l29 0 0 180 0 180 -29 0 c-21 0 -32 -6 -36 -20 -6 -20 -6 -20 -34 1 -40 29 -97 34 -146 11z m128 -73 c37 -29 54 -88 38 -138 -25 -84 -107 -107 -167 -47 -29 29 -34 41 -34 83 0 48 16 84 50 110 24 20 84 15 113 -8z"/>
 <path d="M3585 850 c-35 -18 -41 -19 -51 -5 -6 8 -23 15 -38 15 l-26 0 0 -275 0 -275 35 0 35 0 0 110 c0 61 2 110 5 110 3 0 17 -8 32 -17 39 -26 120 -23 165 5 58 36 83 85 83 163 0 55 -4 72 -28 108 -31 46 -91 80 -142 81 -17 0 -49 -9 -70 -20z m117 -61 c26 -14 61 -93 53 -122 -16 -56 -30 -79 -56 -92 -65 -34 -130 -5 -149 66 -14 51 2 111 37 138 28 23 82 27 115 10z"/>
 <path d="M1837 854 c-4 -4 -7 -124 -7 -266 l0 -258 44 0 44 0 143 199 144 199 3 -199 2 -199 40 0 40 0 0 265 0 265 -39 0 -39 0 -146 -201 -146 -200 -2 198 -3 198 -35 3 c-20 2 -39 0 -43 -4z"/>
 <path d="M3192 683 l3 -178 24 -3 c14 -2 30 3 36 12 10 14 16 13 53 -6 31 -15 52 -18 77 -14 32 6 35 9 29 34 -9 36 -10 37 -48 34 -24 -2 -42 4 -64 23 l-32 27 0 124 0 124 -40 0 -40 0 2 -177z"/>
 </g>
<g id="layer103" fill="#e70000" stroke="none">
 <path d="M370 835 c-140 -140 -252 -256 -250 -258 3 -2 79 -17 170 -34 l165 -30 200 23 c110 13 205 22 211 20 6 -2 41 54 77 126 37 72 67 122 67 112 0 -11 18 -53 40 -94 22 -41 57 -107 77 -147 59 -114 44 -122 338 176 139 141 252 257 251 258 -1 1 -69 23 -151 48 l-148 47 -227 -27 -226 -27 -166 31 c-90 17 -167 31 -169 31 -2 0 -119 -115 -259 -255z"/>
 <path d="M3966 943 c62 -137 61 -120 14 -214 -24 -46 -58 -117 -76 -156 l-33 -73 40 0 40 0 55 117 55 117 53 -114 54 -115 41 -3 40 -3 -14 33 c-7 18 -58 130 -113 248 l-99 215 -42 3 -41 3 26 -58z"/>
 <path d="M2475 851 c-22 -10 -52 -31 -67 -47 -120 -129 3 -350 170 -304 68 18 122 99 122 183 l0 27 -130 0 c-147 0 -156 6 -95 59 41 36 96 41 147 15 29 -15 32 -15 52 6 l21 21 -25 19 c-26 20 -93 40 -132 40 -13 0 -41 -9 -63 -19z m145 -221 c0 -12 -11 -32 -25 -45 -35 -36 -88 -34 -126 4 -51 51 -42 61 61 61 84 0 90 -1 90 -20z"/>
 <path d="M2865 852 c-127 -59 -151 -227 -45 -316 60 -50 152 -55 200 -11 17 15 19 15 25 -4 4 -15 15 -21 36 -21 l29 0 0 180 0 180 -29 0 c-21 0 -32 -6 -36 -20 -6 -20 -6 -20 -34 1 -40 29 -97 34 -146 11z m128 -73 c37 -29 54 -88 38 -138 -25 -84 -107 -107 -167 -47 -29 29 -34 41 -34 83 0 48 16 84 50 110 24 20 84 15 113 -8z"/>
 <path d="M3585 850 c-35 -18 -41 -19 -51 -5 -6 8 -23 15 -38 15 l-26 0 0 -275 0 -275 35 0 35 0 0 110 c0 61 2 110 5 110 3 0 17 -8 32 -17 39 -26 120 -23 165 5 58 36 83 85 83 163 0 55 -4 72 -28 108 -31 46 -91 80 -142 81 -17 0 -49 -9 -70 -20z m117 -61 c26 -14 61 -93 53 -122 -16 -56 -30 -79 -56 -92 -65 -34 -130 -5 -149 66 -14 51 2 111 37 138 28 23 82 27 115 10z"/>
 <path d="M1837 854 c-4 -4 -7 -124 -7 -266 l0 -258 44 0 44 0 143 199 144 199 3 -199 2 -199 40 0 40 0 0 265 0 265 -39 0 -39 0 -146 -201 -146 -200 -2 198 -3 198 -35 3 c-20 2 -39 0 -43 -4z"/>
 <path d="M3192 683 l3 -178 24 -3 c14 -2 30 3 36 12 10 14 16 13 53 -6 31 -15 52 -18 77 -14 32 6 35 9 29 34 -9 36 -10 37 -48 34 -24 -2 -42 4 -64 23 l-32 27 0 124 0 124 -40 0 -40 0 2 -177z"/>
 <path d="M1160 440 c0 -7 3 -10 7 -7 3 4 3 10 0 14 -4 3 -7 0 -7 -7z"/>
 <path d="M830 430 c0 -7 3 -10 7 -7 3 4 3 10 0 14 -4 3 -7 0 -7 -7z"/>
 <path d="M936 409 c-14 -17 -26 -25 -26 -19 0 7 -13 10 -33 9 -18 -2 -38 0 -45 5 -20 12 -15 -79 8 -124 19 -38 81 -90 107 -90 8 0 22 -5 33 -12 15 -9 24 -9 44 1 13 8 32 11 41 7 9 -3 13 -2 10 3 -3 5 3 12 14 16 28 9 80 70 86 103 4 15 10 35 15 44 6 11 6 19 0 23 -6 3 -10 16 -11 28 0 12 -3 16 -6 10 -2 -7 -20 -13 -38 -13 -19 0 -37 -5 -40 -11 -5 -6 -11 -4 -19 6 -10 14 -12 11 -8 -19 7 -61 -45 -99 -97 -71 -47 24 -55 74 -19 112 12 13 19 23 16 23 -4 0 -18 -14 -32 -31z"/>
 <path d="M800 390 c0 -7 3 -10 7 -7 3 4 3 10 0 14 -4 3 -7 0 -7 -7z"/>
 </g>
<g id="layer104" fill="#6aaa3e" stroke="none">
 <path d="M370 835 c-140 -140 -252 -256 -250 -258 3 -2 79 -17 170 -34 l165 -30 200 23 c110 13 205 22 211 20 6 -2 41 54 77 126 37 72 67 122 67 112 0 -11 18 -53 40 -94 22 -41 57 -107 77 -147 59 -114 44 -122 338 176 139 141 252 257 251 258 -1 1 -69 23 -151 48 l-148 47 -227 -27 -226 -27 -166 31 c-90 17 -167 31 -169 31 -2 0 -119 -115 -259 -255z"/>
 <path d="M3966 943 c62 -137 61 -120 14 -214 -24 -46 -58 -117 -76 -156 l-33 -73 40 0 40 0 55 117 55 117 53 -114 54 -115 41 -3 40 -3 -14 33 c-7 18 -58 130 -113 248 l-99 215 -42 3 -41 3 26 -58z"/>
 <path d="M2475 851 c-22 -10 -52 -31 -67 -47 -120 -129 3 -350 170 -304 68 18 122 99 122 183 l0 27 -130 0 c-147 0 -156 6 -95 59 41 36 96 41 147 15 29 -15 32 -15 52 6 l21 21 -25 19 c-26 20 -93 40 -132 40 -13 0 -41 -9 -63 -19z m145 -221 c0 -12 -11 -32 -25 -45 -35 -36 -88 -34 -126 4 -51 51 -42 61 61 61 84 0 90 -1 90 -20z"/>
 <path d="M2865 852 c-127 -59 -151 -227 -45 -316 60 -50 152 -55 200 -11 17 15 19 15 25 -4 4 -15 15 -21 36 -21 l29 0 0 180 0 180 -29 0 c-21 0 -32 -6 -36 -20 -6 -20 -6 -20 -34 1 -40 29 -97 34 -146 11z m128 -73 c37 -29 54 -88 38 -138 -25 -84 -107 -107 -167 -47 -29 29 -34 41 -34 83 0 48 16 84 50 110 24 20 84 15 113 -8z"/>
 <path d="M3585 850 c-35 -18 -41 -19 -51 -5 -6 8 -23 15 -38 15 l-26 0 0 -275 0 -275 35 0 35 0 0 110 c0 61 2 110 5 110 3 0 17 -8 32 -17 39 -26 120 -23 165 5 58 36 83 85 83 163 0 55 -4 72 -28 108 -31 46 -91 80 -142 81 -17 0 -49 -9 -70 -20z m117 -61 c26 -14 61 -93 53 -122 -16 -56 -30 -79 -56 -92 -65 -34 -130 -5 -149 66 -14 51 2 111 37 138 28 23 82 27 115 10z"/>
 <path d="M1837 854 c-4 -4 -7 -124 -7 -266 l0 -258 44 0 44 0 143 199 144 199 3 -199 2 -199 40 0 40 0 0 265 0 265 -39 0 -39 0 -146 -201 -146 -200 -2 198 -3 198 -35 3 c-20 2 -39 0 -43 -4z"/>
 <path d="M3192 683 l3 -178 24 -3 c14 -2 30 3 36 12 10 14 16 13 53 -6 31 -15 52 -18 77 -14 32 6 35 9 29 34 -9 36 -10 37 -48 34 -24 -2 -42 4 -64 23 l-32 27 0 124 0 124 -40 0 -40 0 2 -177z"/>
 <path d="M800 390 c0 -7 3 -10 7 -7 3 4 3 10 0 14 -4 3 -7 0 -7 -7z"/>
 </g>
<g id="layer105" fill="#a9873e" stroke="none">
 <path d="M370 835 c-140 -140 -252 -256 -250 -258 3 -2 73 -16 155 -31 83 -15 161 -30 175 -33 14 -3 22 -3 19 1 -3 3 42 56 100 116 l106 111 80 10 c44 5 113 14 154 18 54 5 77 12 87 26 13 17 14 17 14 1 0 -15 7 -16 63 -10 l62 6 -43 -44 -43 -45 58 -111 c45 -85 63 -111 81 -115 20 -4 64 36 277 252 139 141 252 257 251 258 -1 1 -69 23 -151 48 l-148 47 -227 -27 -226 -27 -166 31 c-90 17 -167 31 -169 31 -2 0 -119 -115 -259 -255z"/>
 <path d="M3966 943 c62 -137 61 -120 14 -214 -24 -46 -58 -117 -76 -156 l-33 -73 40 0 40 0 55 117 55 117 53 -114 54 -115 41 -3 40 -3 -14 33 c-7 18 -58 130 -113 248 l-99 215 -42 3 -41 3 26 -58z"/>
 <path d="M2475 851 c-22 -10 -52 -31 -67 -47 -120 -129 3 -350 170 -304 68 18 122 99 122 183 l0 27 -130 0 c-147 0 -156 6 -95 59 41 36 96 41 147 15 29 -15 32 -15 52 6 l21 21 -25 19 c-26 20 -93 40 -132 40 -13 0 -41 -9 -63 -19z m145 -221 c0 -12 -11 -32 -25 -45 -35 -36 -88 -34 -126 4 -51 51 -42 61 61 61 84 0 90 -1 90 -20z"/>
 <path d="M2865 852 c-127 -59 -151 -227 -45 -316 60 -50 152 -55 200 -11 17 15 19 15 25 -4 4 -15 15 -21 36 -21 l29 0 0 180 0 180 -29 0 c-21 0 -32 -6 -36 -20 -6 -20 -6 -20 -34 1 -40 29 -97 34 -146 11z m128 -73 c37 -29 54 -88 38 -138 -25 -84 -107 -107 -167 -47 -29 29 -34 41 -34 83 0 48 16 84 50 110 24 20 84 15 113 -8z"/>
 <path d="M3585 850 c-35 -18 -41 -19 -51 -5 -6 8 -23 15 -38 15 l-26 0 0 -275 0 -275 35 0 35 0 0 110 c0 61 2 110 5 110 3 0 17 -8 32 -17 39 -26 120 -23 165 5 58 36 83 85 83 163 0 55 -4 72 -28 108 -31 46 -91 80 -142 81 -17 0 -49 -9 -70 -20z m117 -61 c26 -14 61 -93 53 -122 -16 -56 -30 -79 -56 -92 -65 -34 -130 -5 -149 66 -14 51 2 111 37 138 28 23 82 27 115 10z"/>
 <path d="M1837 854 c-4 -4 -7 -124 -7 -266 l0 -258 44 0 44 0 143 199 144 199 3 -199 2 -199 40 0 40 0 0 265 0 265 -39 0 -39 0 -146 -201 -146 -200 -2 198 -3 198 -35 3 c-20 2 -39 0 -43 -4z"/>
 <path d="M3192 683 l3 -178 24 -3 c14 -2 30 3 36 12 10 14 16 13 53 -6 31 -15 52 -18 77 -14 32 6 35 9 29 34 -9 36 -10 37 -48 34 -24 -2 -42 4 -64 23 l-32 27 0 124 0 124 -40 0 -40 0 2 -177z"/>
 <path d="M871 571 c-8 -5 -9 -11 -3 -15 5 -3 12 1 16 9 6 17 6 18 -13 6z"/>
 <path d="M688 543 c7 -3 16 -2 19 1 4 3 -2 6 -13 5 -11 0 -14 -3 -6 -6z"/>
 <path d="M603 533 c4 -3 10 -3 14 0 3 4 0 7 -7 7 -7 0 -10 -3 -7 -7z"/>
 <path d="M800 390 c0 -7 3 -10 7 -7 3 4 3 10 0 14 -4 3 -7 0 -7 -7z"/>
 </g>
<g id="layer106" fill="#3d85a9" stroke="none">
 <path d="M370 835 c-140 -140 -252 -256 -250 -258 3 -2 73 -16 155 -31 83 -15 161 -30 175 -33 14 -3 22 -3 19 1 -3 3 42 56 100 116 l106 111 80 10 c44 5 113 14 154 18 54 5 77 12 87 26 13 17 14 17 14 1 0 -15 7 -16 63 -10 l62 6 -44 -45 -43 -45 61 -110 c40 -71 69 -112 82 -115 16 -4 71 46 274 251 139 141 252 258 251 259 -11 11 -302 93 -328 92 -26 -2 -28 -3 -8 -6 23 -4 16 -13 -85 -114 l-110 -110 -70 -9 c-38 -5 -72 -7 -74 -4 -3 3 44 54 104 114 60 61 105 110 100 110 -6 0 -71 -7 -146 -16 l-135 -16 -165 31 c-91 17 -168 31 -170 31 -2 0 -119 -115 -259 -255z"/>
 <path d="M1288 1063 c7 -3 16 -2 19 1 4 3 -2 6 -13 5 -11 0 -14 -3 -6 -6z"/>
 <path d="M3966 943 c62 -137 61 -120 14 -214 -24 -46 -58 -117 -76 -156 l-33 -73 40 0 40 0 55 117 55 117 53 -114 54 -115 41 -3 40 -3 -14 33 c-7 18 -58 130 -113 248 l-99 215 -42 3 -41 3 26 -58z"/>
 <path d="M2475 851 c-22 -10 -52 -31 -67 -47 -120 -129 3 -350 170 -304 68 18 122 99 122 183 l0 27 -130 0 c-147 0 -156 6 -95 59 41 36 96 41 147 15 29 -15 32 -15 52 6 l21 21 -25 19 c-26 20 -93 40 -132 40 -13 0 -41 -9 -63 -19z m145 -221 c0 -12 -11 -32 -25 -45 -35 -36 -88 -34 -126 4 -51 51 -42 61 61 61 84 0 90 -1 90 -20z"/>
 <path d="M2865 852 c-127 -59 -151 -227 -45 -316 60 -50 152 -55 200 -11 17 15 19 15 25 -4 4 -15 15 -21 36 -21 l29 0 0 180 0 180 -29 0 c-21 0 -32 -6 -36 -20 -6 -20 -6 -20 -34 1 -40 29 -97 34 -146 11z m128 -73 c37 -29 54 -88 38 -138 -25 -84 -107 -107 -167 -47 -29 29 -34 41 -34 83 0 48 16 84 50 110 24 20 84 15 113 -8z"/>
 <path d="M3585 850 c-35 -18 -41 -19 -51 -5 -6 8 -23 15 -38 15 l-26 0 0 -275 0 -275 35 0 35 0 0 110 c0 61 2 110 5 110 3 0 17 -8 32 -17 39 -26 120 -23 165 5 58 36 83 85 83 163 0 55 -4 72 -28 108 -31 46 -91 80 -142 81 -17 0 -49 -9 -70 -20z m117 -61 c26 -14 61 -93 53 -122 -16 -56 -30 -79 -56 -92 -65 -34 -130 -5 -149 66 -14 51 2 111 37 138 28 23 82 27 115 10z"/>
 <path d="M1837 854 c-4 -4 -7 -124 -7 -266 l0 -258 44 0 44 0 143 199 144 199 3 -199 2 -199 40 0 40 0 0 265 0 265 -39 0 -39 0 -146 -201 -146 -200 -2 198 -3 198 -35 3 c-20 2 -39 0 -43 -4z"/>
 <path d="M3192 683 l3 -178 24 -3 c14 -2 30 3 36 12 10 14 16 13 53 -6 31 -15 52 -18 77 -14 32 6 35 9 29 34 -9 36 -10 37 -48 34 -24 -2 -42 4 -64 23 l-32 27 0 124 0 124 -40 0 -40 0 2 -177z"/>
 <path d="M865 560 c3 -5 8 -10 11 -10 2 0 4 5 4 10 0 6 -5 10 -11 10 -5 0 -7 -4 -4 -10z"/>
 <path d="M688 543 c7 -3 16 -2 19 1 4 3 -2 6 -13 5 -11 0 -14 -3 -6 -6z"/>
 <path d="M603 533 c4 -3 10 -3 14 0 3 4 0 7 -7 7 -7 0 -10 -3 -7 -7z"/>
 <path d="M800 390 c0 -7 3 -10 7 -7 3 4 3 10 0 14 -4 3 -7 0 -7 -7z"/>
 </g>
<g id="layer107" fill="#7dc84b" stroke="none">
 <path d="M370 835 c-140 -140 -252 -256 -250 -258 3 -2 73 -16 155 -31 83 -15 161 -30 175 -33 14 -3 22 -3 19 1 -3 3 42 56 100 116 l106 111 80 10 c44 5 113 14 154 18 54 5 77 12 87 26 13 17 14 17 14 1 0 -15 7 -16 63 -10 l62 6 -44 -45 -43 -45 61 -110 c40 -71 69 -112 82 -115 16 -4 71 46 274 251 139 141 252 258 251 259 -11 11 -302 93 -328 92 -26 -2 -28 -3 -8 -6 23 -4 16 -13 -85 -114 l-110 -110 -70 -9 c-38 -5 -72 -7 -74 -4 -3 3 44 54 105 115 l109 111 -67 -7 -67 -7 -96 -97 c-52 -54 -101 -105 -108 -115 -14 -19 -79 -34 -147 -35 l-35 -1 115 115 c63 63 112 115 109 115 -4 0 -78 13 -165 30 -88 16 -161 30 -164 30 -3 0 -120 -115 -260 -255z"/>
 <path d="M1288 1063 c7 -3 16 -2 19 1 4 3 -2 6 -13 5 -11 0 -14 -3 -6 -6z"/>
 <path d="M3966 943 c62 -137 61 -120 14 -214 -24 -46 -58 -117 -76 -156 l-33 -73 40 0 40 0 55 117 55 117 53 -114 54 -115 41 -3 40 -3 -14 33 c-7 18 -58 130 -113 248 l-99 215 -42 3 -41 3 26 -58z"/>
 <path d="M2475 851 c-22 -10 -52 -31 -67 -47 -120 -129 3 -350 170 -304 68 18 122 99 122 183 l0 27 -130 0 c-147 0 -156 6 -95 59 41 36 96 41 147 15 29 -15 32 -15 52 6 l21 21 -25 19 c-26 20 -93 40 -132 40 -13 0 -41 -9 -63 -19z m145 -221 c0 -12 -11 -32 -25 -45 -35 -36 -88 -34 -126 4 -51 51 -42 61 61 61 84 0 90 -1 90 -20z"/>
 <path d="M2865 852 c-127 -59 -151 -227 -45 -316 60 -50 152 -55 200 -11 17 15 19 15 25 -4 4 -15 15 -21 36 -21 l29 0 0 180 0 180 -29 0 c-21 0 -32 -6 -36 -20 -6 -20 -6 -20 -34 1 -40 29 -97 34 -146 11z m128 -73 c37 -29 54 -88 38 -138 -25 -84 -107 -107 -167 -47 -29 29 -34 41 -34 83 0 48 16 84 50 110 24 20 84 15 113 -8z"/>
 <path d="M3585 850 c-35 -18 -41 -19 -51 -5 -6 8 -23 15 -38 15 l-26 0 0 -275 0 -275 35 0 35 0 0 110 c0 61 2 110 5 110 3 0 17 -8 32 -17 39 -26 120 -23 165 5 58 36 83 85 83 163 0 55 -4 72 -28 108 -31 46 -91 80 -142 81 -17 0 -49 -9 -70 -20z m117 -61 c26 -14 61 -93 53 -122 -16 -56 -30 -79 -56 -92 -65 -34 -130 -5 -149 66 -14 51 2 111 37 138 28 23 82 27 115 10z"/>
 <path d="M1837 854 c-4 -4 -7 -124 -7 -266 l0 -258 44 0 44 0 143 199 144 199 3 -199 2 -199 40 0 40 0 0 265 0 265 -39 0 -39 0 -146 -201 -146 -200 -2 198 -3 198 -35 3 c-20 2 -39 0 -43 -4z"/>
 <path d="M3192 683 l3 -178 24 -3 c14 -2 30 3 36 12 10 14 16 13 53 -6 31 -15 52 -18 77 -14 32 6 35 9 29 34 -9 36 -10 37 -48 34 -24 -2 -42 4 -64 23 l-32 27 0 124 0 124 -40 0 -40 0 2 -177z"/>
 <path d="M865 560 c3 -5 8 -10 11 -10 2 0 4 5 4 10 0 6 -5 10 -11 10 -5 0 -7 -4 -4 -10z"/>
 <path d="M688 543 c7 -3 16 -2 19 1 4 3 -2 6 -13 5 -11 0 -14 -3 -6 -6z"/>
 <path d="M603 533 c4 -3 10 -3 14 0 3 4 0 7 -7 7 -7 0 -10 -3 -7 -7z"/>
 <path d="M800 390 c0 -7 3 -10 7 -7 3 4 3 10 0 14 -4 3 -7 0 -7 -7z"/>
 </g>
<g id="layer108" fill="#489dc6" stroke="none">
 <path d="M485 950 c-93 -93 -134 -141 -124 -144 37 -13 291 -56 330 -56 25 0 101 7 169 15 92 11 128 20 137 32 12 16 13 16 13 -1 0 -12 5 -16 18 -12 55 17 123 8 257 -34 77 -24 141 -46 143 -50 1 -3 67 59 147 139 79 80 143 147 142 148 -12 11 -303 93 -329 92 -26 -2 -28 -3 -8 -6 23 -4 16 -13 -85 -114 l-110 -110 -70 -9 c-38 -5 -72 -7 -74 -4 -3 3 44 54 105 115 l109 111 -67 -7 -67 -7 -96 -97 c-52 -54 -101 -105 -108 -115 -14 -19 -79 -34 -147 -35 l-35 -1 115 115 c63 63 112 115 109 115 -4 0 -78 13 -165 30 -88 16 -161 30 -164 30 -3 0 -68 -63 -145 -140z"/>
 <path d="M1288 1063 c7 -3 16 -2 19 1 4 3 -2 6 -13 5 -11 0 -14 -3 -6 -6z"/>
 <path d="M3966 943 c62 -137 61 -120 14 -214 -24 -46 -58 -117 -76 -156 l-33 -73 40 0 40 0 55 117 55 117 53 -114 54 -115 41 -3 40 -3 -14 33 c-7 18 -58 130 -113 248 l-99 215 -42 3 -41 3 26 -58z"/>
 <path d="M2475 851 c-22 -10 -52 -31 -67 -47 -120 -129 3 -350 170 -304 68 18 122 99 122 183 l0 27 -130 0 c-147 0 -156 6 -95 59 41 36 96 41 147 15 29 -15 32 -15 52 6 l21 21 -25 19 c-26 20 -93 40 -132 40 -13 0 -41 -9 -63 -19z m145 -221 c0 -12 -11 -32 -25 -45 -35 -36 -88 -34 -126 4 -51 51 -42 61 61 61 84 0 90 -1 90 -20z"/>
 <path d="M2865 852 c-127 -59 -151 -227 -45 -316 60 -50 152 -55 200 -11 17 15 19 15 25 -4 4 -15 15 -21 36 -21 l29 0 0 180 0 180 -29 0 c-21 0 -32 -6 -36 -20 -6 -20 -6 -20 -34 1 -40 29 -97 34 -146 11z m128 -73 c37 -29 54 -88 38 -138 -25 -84 -107 -107 -167 -47 -29 29 -34 41 -34 83 0 48 16 84 50 110 24 20 84 15 113 -8z"/>
 <path d="M3585 850 c-35 -18 -41 -19 -51 -5 -6 8 -23 15 -38 15 l-26 0 0 -275 0 -275 35 0 35 0 0 110 c0 61 2 110 5 110 3 0 17 -8 32 -17 39 -26 120 -23 165 5 58 36 83 85 83 163 0 55 -4 72 -28 108 -31 46 -91 80 -142 81 -17 0 -49 -9 -70 -20z m117 -61 c26 -14 61 -93 53 -122 -16 -56 -30 -79 -56 -92 -65 -34 -130 -5 -149 66 -14 51 2 111 37 138 28 23 82 27 115 10z"/>
 <path d="M1837 854 c-4 -4 -7 -124 -7 -266 l0 -258 44 0 44 0 143 199 144 199 3 -199 2 -199 40 0 40 0 0 265 0 265 -39 0 -39 0 -146 -201 -146 -200 -2 198 -3 198 -35 3 c-20 2 -39 0 -43 -4z"/>
 <path d="M3192 683 l3 -178 24 -3 c14 -2 30 3 36 12 10 14 16 13 53 -6 31 -15 52 -18 77 -14 32 6 35 9 29 34 -9 36 -10 37 -48 34 -24 -2 -42 4 -64 23 l-32 27 0 124 0 124 -40 0 -40 0 2 -177z"/>
 <path d="M448 513 c7 -3 16 -2 19 1 4 3 -2 6 -13 5 -11 0 -14 -3 -6 -6z"/>
 <path d="M800 390 c0 -7 3 -10 7 -7 3 4 3 10 0 14 -4 3 -7 0 -7 -7z"/>
 </g>
<g id="layer109" fill="#c8a04b" stroke="none">
 <path d="M1380 1073 c23 -4 16 -13 -85 -114 l-110 -110 -70 -9 c-38 -5 -72 -7 -74 -4 -3 3 44 54 105 115 l109 111 -67 -7 -67 -7 -96 -97 c-52 -54 -101 -105 -108 -115 -15 -20 -81 -35 -162 -35 -27 0 -120 13 -205 29 l-155 29 -24 -24 c-30 -29 -37 -26 140 -60 159 -29 184 -30 349 -10 92 11 128 20 138 32 11 16 12 16 12 -1 0 -12 5 -16 18 -12 55 17 123 8 257 -34 77 -24 141 -46 143 -50 1 -3 67 59 147 139 79 80 143 147 142 148 -12 11 -303 93 -329 92 -26 -2 -28 -3 -8 -6z"/>
 <path d="M1288 1063 c7 -3 16 -2 19 1 4 3 -2 6 -13 5 -11 0 -14 -3 -6 -6z"/>
 <path d="M448 513 c7 -3 16 -2 19 1 4 3 -2 6 -13 5 -11 0 -14 -3 -6 -6z"/>
 <path d="M800 390 c0 -7 3 -10 7 -7 3 4 3 10 0 14 -4 3 -7 0 -7 -7z"/>
 </g>
<g id="layer110" fill="#d4d37b" stroke="none">
 <path d="M1368 1073 c6 -2 18 -2 25 0 6 3 1 5 -13 5 -14 0 -19 -2 -12 -5z"/>
 <path d="M1423 1073 c4 -3 10 -3 14 0 3 4 0 7 -7 7 -7 0 -10 -3 -7 -7z"/>
 <path d="M1288 1063 c7 -3 16 -2 19 1 4 3 -2 6 -13 5 -11 0 -14 -3 -6 -6z"/>
 <path d="M1453 1063 c4 -3 10 -3 14 0 3 4 0 7 -7 7 -7 0 -10 -3 -7 -7z"/>
 <path d="M1155 1052 c-36 -5 -51 -17 -145 -116 -58 -61 -110 -114 -116 -118 -7 -4 -49 -10 -95 -14 -69 -5 -112 -1 -244 25 l-160 30 -24 -24 c-30 -29 -37 -26 140 -60 159 -29 184 -30 349 -10 92 11 128 20 138 32 11 16 12 16 12 -1 0 -12 5 -16 18 -12 55 17 123 8 257 -34 77 -24 142 -46 145 -50 3 -3 17 8 32 25 l27 32 -152 46 c-145 44 -155 46 -222 37 -38 -5 -72 -7 -74 -4 -3 3 44 54 104 114 120 120 119 115 10 102z"/>
 <path d="M1553 1033 c4 -3 10 -3 14 0 3 4 0 7 -7 7 -7 0 -10 -3 -7 -7z"/>
 <path d="M1583 1023 c4 -3 10 -3 14 0 3 4 0 7 -7 7 -7 0 -10 -3 -7 -7z"/>
 <path d="M1683 993 c4 -3 10 -3 14 0 3 4 0 7 -7 7 -7 0 -10 -3 -7 -7z"/>
 <path d="M448 513 c7 -3 16 -2 19 1 4 3 -2 6 -13 5 -11 0 -14 -3 -6 -6z"/>
 <path d="M800 390 c0 -7 3 -10 7 -7 3 4 3 10 0 14 -4 3 -7 0 -7 -7z"/>
 </g>
<g id="layer111" fill="#f8f692" stroke="none">
 <path d="M371 836 l-23 -24 29 -6 c15 -3 90 -17 166 -31 132 -25 140 -25 158 -9 10 9 19 20 19 24 0 4 -64 20 -142 34 -79 15 -152 29 -164 31 -13 3 -29 -4 -43 -19z"/>
 <path d="M1162 819 c-7 -12 -12 -22 -10 -24 2 -1 67 -22 146 -45 l143 -44 21 22 c12 12 20 23 17 25 -7 6 -278 87 -291 87 -7 0 -19 -9 -26 -21z"/>
 </g>

</svg>